# xmcd
#
# Track frame offsets:
# 150
# 26804
# 64978
# 75904
# 110977
# 147780
# 182774
# 234610
# 281248
# 327043
#
# Disc length: 4697 seconds
#
# Revision: 0
# Processed by: cddbd v1.5.2PL0 Copyright (c) Steve Scherf et al.
# Submitted via: Audion 3.0.2 (http://www.panic.com/audion/)
#
DISCID=9012570a
DTITLE=Michelle Shocked Chicago 22.6.00 - Michelle Shocked Chicago 22.6.00
DYEAR=1900
DGENRE=
TTITLE0=12
TTITLE1=13
TTITLE2=14
TTITLE3=15
TTITLE4=16
TTITLE5=17
TTITLE6=18
TTITLE7=19
TTITLE8=20
TTITLE9=21
EXTD=
EXTT0=
EXTT1=
EXTT2=
EXTT3=
EXTT4=
EXTT5=
EXTT6=
EXTT7=
EXTT8=
EXTT9=
PLAYORDER=
